<?xml version="1.0" encoding="iso-8859-1"?>
<!-- Generator: Adobe Illustrator 19.0.0, SVG Export Plug-In . SVG Version: 6.00 Build 0)  -->
<svg version="1.1" id="Layer_1" xmlns="http://www.w3.org/2000/svg" xmlns:xlink="http://www.w3.org/1999/xlink" x="0px" y="0px"
	 viewBox="0 0 392.598 392.598" style="enable-background:new 0 0 392.598 392.598;" xml:space="preserve">
<rect x="21.851" y="152.857" style="fill:#FFFFFF;" width="348.962" height="217.988"/>
<path style="fill:#194F82;" d="M381.737,131.071H208.679c4.784-17.713,20.945-30.707,40.081-30.707h93.673
	c27.669,0,50.166-22.497,50.166-50.166S370.101,0.032,342.432,0.032H70.206c-6.012,0-10.925,4.848-10.925,10.925
	s4.848,10.925,10.925,10.925h272.226c15.58,0,28.251,12.671,28.251,28.251s-12.671,28.251-28.251,28.251h-93.543
	c-31.224,0-57.277,22.691-62.449,52.558H10.925C4.913,130.941,0,135.79,0,141.867V381.64c0,6.012,4.848,10.925,10.925,10.925
	h370.747c6.012,0,10.925-4.848,10.925-10.925V141.996C392.598,135.919,387.749,131.071,381.737,131.071z M370.812,370.844H21.851
	V152.857h348.962L370.812,370.844L370.812,370.844z"/>
<path style="fill:#FFC10D;" d="M43.636,345.891V177.745c0-1.681,1.422-3.103,3.103-3.103h299.119c1.681,0,3.103,1.422,3.103,3.103
	v168.145c0,1.681-1.422,3.103-3.103,3.103H46.739C45.059,348.994,43.636,347.636,43.636,345.891z"/>
<g>
	<path style="fill:#194F82;" d="M79.903,209.293h-9.762c-6.012,0-10.925-4.848-10.925-10.925c0-6.012,4.848-10.925,10.925-10.925
		h9.762c6.012,0,10.925,4.848,10.925,10.925C90.764,204.38,85.851,209.293,79.903,209.293z"/>
	<path style="fill:#194F82;" d="M128.388,209.293h-9.762c-6.012,0-10.925-4.848-10.925-10.925c0-6.012,4.848-10.925,10.925-10.925
		h9.762c6.012,0,10.925,4.848,10.925,10.925C139.313,204.38,134.465,209.293,128.388,209.293z"/>
	<path style="fill:#194F82;" d="M176.937,209.293h-9.762c-6.012,0-10.925-4.848-10.925-10.925c0-6.012,4.848-10.925,10.925-10.925
		h9.762c6.012,0,10.925,4.848,10.925,10.925S182.949,209.293,176.937,209.293z"/>
	<path style="fill:#194F82;" d="M225.487,209.293h-9.762c-6.012,0-10.925-4.848-10.925-10.925c0-6.012,4.848-10.925,10.925-10.925
		h9.762c6.012,0,10.925,4.848,10.925,10.925C236.347,204.38,231.499,209.293,225.487,209.293z"/>
	<path style="fill:#194F82;" d="M273.972,209.293h-9.762c-6.012,0-10.925-4.848-10.925-10.925c0-6.012,4.848-10.925,10.925-10.925
		h9.762c6.012,0,10.925,4.848,10.925,10.925S280.048,209.293,273.972,209.293z"/>
	<path style="fill:#194F82;" d="M322.521,209.293h-9.762c-6.012,0-10.925-4.848-10.925-10.925c0-6.012,4.848-10.925,10.925-10.925
		h9.762c6.012,0,10.925,4.848,10.925,10.925S328.533,209.293,322.521,209.293z"/>
	<path style="fill:#194F82;" d="M79.903,251.636h-9.762c-6.012,0-10.925-4.848-10.925-10.925c0-6.077,4.848-10.925,10.925-10.925
		h9.762c6.012,0,10.925,4.848,10.925,10.925C90.828,246.788,85.851,251.636,79.903,251.636z"/>
	<path style="fill:#194F82;" d="M128.388,251.636h-9.762c-6.012,0-10.925-4.848-10.925-10.925c0-6.077,4.848-10.925,10.925-10.925
		h9.762c6.012,0,10.925,4.848,10.925,10.925C139.313,246.788,134.465,251.636,128.388,251.636z"/>
	<path style="fill:#194F82;" d="M176.937,251.636h-9.762c-6.012,0-10.925-4.848-10.925-10.925c0-6.077,4.848-10.925,10.925-10.925
		h9.762c6.012,0,10.925,4.848,10.925,10.925C187.863,246.788,182.949,251.636,176.937,251.636z"/>
	<path style="fill:#194F82;" d="M225.487,251.636h-9.762c-6.012,0-10.925-4.848-10.925-10.925c0-6.077,4.848-10.925,10.925-10.925
		h9.762c6.012,0,10.925,4.848,10.925,10.925C236.412,246.788,231.499,251.636,225.487,251.636z"/>
	<path style="fill:#194F82;" d="M273.972,251.636h-9.762c-6.012,0-10.925-4.848-10.925-10.925c0-6.077,4.848-10.925,10.925-10.925
		h9.762c6.012,0,10.925,4.848,10.925,10.925C284.897,246.788,280.048,251.636,273.972,251.636z"/>
	<path style="fill:#194F82;" d="M322.521,251.636h-9.762c-6.012,0-10.925-4.848-10.925-10.925c0-6.077,4.848-10.925,10.925-10.925
		h9.762c6.012,0,10.925,4.848,10.925,10.925C333.446,246.788,328.533,251.636,322.521,251.636z"/>
	<path style="fill:#194F82;" d="M79.903,293.851h-9.762c-6.012,0-10.925-4.849-10.925-10.925S64.065,272,70.141,272h9.762
		c6.012,0,10.925,4.848,10.925,10.925C90.764,289.002,85.851,293.851,79.903,293.851z"/>
	<path style="fill:#194F82;" d="M128.388,293.851h-9.762c-6.012,0-10.925-4.849-10.925-10.925S112.549,272,118.626,272h9.762
		c6.012,0,10.925,4.848,10.925,10.925S134.465,293.851,128.388,293.851z"/>
	<path style="fill:#194F82;" d="M176.937,293.851h-9.762c-6.012,0-10.925-4.849-10.925-10.925S161.099,272,167.176,272h9.762
		c6.012,0,10.925,4.848,10.925,10.925S182.949,293.851,176.937,293.851z"/>
	<path style="fill:#194F82;" d="M225.487,293.851h-9.762c-6.012,0-10.925-4.849-10.925-10.925S209.648,272,215.725,272h9.762
		c6.012,0,10.925,4.848,10.925,10.925C236.347,289.002,231.499,293.851,225.487,293.851z"/>
	<path style="fill:#194F82;" d="M273.972,293.851h-9.762c-6.012,0-10.925-4.849-10.925-10.925S258.133,272,264.21,272h9.762
		c6.012,0,10.925,4.848,10.925,10.925S280.048,293.851,273.972,293.851z"/>
	<path style="fill:#194F82;" d="M322.521,293.851h-9.762c-6.012,0-10.925-4.849-10.925-10.925S306.683,272,312.76,272h9.762
		c6.012,0,10.925,4.848,10.925,10.925C333.382,289.002,328.533,293.851,322.521,293.851z"/>
	<path style="fill:#194F82;" d="M79.903,336.129h-9.762c-6.012,0-10.925-4.848-10.925-10.925c0-6.012,4.848-10.925,10.925-10.925
		h9.762c6.012,0,10.925,4.848,10.925,10.925C90.764,331.281,85.851,336.129,79.903,336.129z"/>
	<path style="fill:#194F82;" d="M225.487,336.129H118.691c-6.012,0-10.925-4.848-10.925-10.925c0-6.012,4.848-10.925,10.925-10.925
		h106.796c6.012,0,10.925,4.848,10.925,10.925C236.347,331.281,231.499,336.129,225.487,336.129z"/>
	<path style="fill:#194F82;" d="M273.972,336.129h-9.762c-6.012,0-10.925-4.848-10.925-10.925c0-6.012,4.848-10.925,10.925-10.925
		h9.762c6.012,0,10.925,4.848,10.925,10.925S280.048,336.129,273.972,336.129z"/>
	<path style="fill:#194F82;" d="M322.521,336.129h-9.762c-6.012,0-10.925-4.848-10.925-10.925c0-6.012,4.848-10.925,10.925-10.925
		h9.762c6.012,0,10.925,4.848,10.925,10.925S328.533,336.129,322.521,336.129z"/>
</g>
<g>
</g>
<g>
</g>
<g>
</g>
<g>
</g>
<g>
</g>
<g>
</g>
<g>
</g>
<g>
</g>
<g>
</g>
<g>
</g>
<g>
</g>
<g>
</g>
<g>
</g>
<g>
</g>
<g>
</g>
</svg>
